PathFileType	4	(X/Y/Z)	OpenSim_Sub04_CSBaseline_Accel.trc
DataRate	CameraRate	NumFrames	NumMarkers	Units	OrigDataRate	OrigDataStartFrame	OrigNumFrames
100	100	30	8	m	100	2021	8083
Frame#	Time	torso_imu_offset_imu	pelvis_imu_offset_imu	tibia_r_imu_offset_imu	femur_r_imu_offset_imu	tibia_l_imu_offset_imu	femur_l_imu_offset_imu	toes_r_imu_offset_imu	toes_l_imu_offset_imu
				X1	Y1	Z1	X2	Y2	Z2	X3	Y3	Z3	X4	Y4	Z4	X5	Y5	Z5	X6	Y6	Z6	X7	Y7	Z7	X8		Y8	Z8	

2021	20.20000000	-8.26310074	-0.87652907	8.03222071	8.84050324	-0.12621545	3.81803817	4.39487047	7.86858104	1.91483311	9.99101347	-0.52395022	2.02522489	9.28490699	-1.76330416	-0.55777257	8.80131229	0.96235908	-1.85661759	3.22339471	-0.50609010	8.45647201	5.58590262	2.66683022	10.34437708
2022	20.21000000	-8.00530948	-0.85629339	8.09174597	8.86782115	0.03085044	3.70274142	4.32224057	7.51542017	2.46514563	9.68255156	-0.70007923	2.14735967	9.43953417	-2.09756122	-0.46723866	8.98270368	0.90807555	-1.63787386	2.47184353	-0.41583525	7.23412499	5.84376248	2.54190565	10.24540214
2023	20.22000000	-7.76498480	-0.82305271	8.15786103	8.94650959	0.03362080	3.61003389	4.31200383	7.68075352	2.09016103	9.31706980	-0.83527446	2.27658713	9.45094310	-2.49949026	-0.41664151	9.05837030	0.76142265	-1.47339477	2.62739639	-0.22012346	7.12230546	5.48459411	2.42032786	10.53324450
2024	20.23000000	-7.53880556	-0.78744367	8.04741753	8.97270787	-0.02338311	3.55251379	4.03203088	7.86932410	1.41878516	8.72947082	-0.84838293	2.42263920	9.37842076	-2.98129628	-0.25542682	9.13778173	1.07344223	-1.48540800	3.42034997	0.95360806	7.55357068	5.11478859	2.37054986	10.72369730
2025	20.24000000	-7.36669314	-0.76645525	7.98147242	8.94217723	-0.24506384	3.39140926	3.44733129	7.61668684	1.30429537	8.15386851	-0.75940460	2.53810067	9.31376525	-3.05196717	-0.01602015	9.27173687	1.07373796	-1.37517712	6.77686005	0.16965271	8.69287649	5.67311515	2.19498084	10.37097347
2026	20.25000000	-7.22633662	-0.78813388	7.87611035	8.90362003	-0.58170235	3.20922622	3.54993425	7.55726008	1.56952769	7.53075011	-0.73549124	2.60372396	9.23222132	-2.86831102	0.01645982	9.45778047	1.32095670	-1.45415419	9.15589256	-0.68880990	9.52547650	5.63864505	2.06465968	10.39284800
2027	20.26000000	-7.18485428	-0.70860257	7.79407258	8.93376516	-0.95000763	3.12802902	4.18852709	7.98621384	1.41061124	7.08241959	-0.66797177	2.62606805	9.42640985	-2.78658144	0.06327363	9.48270232	1.40607808	-1.49650772	10.20409300	-0.36022065	9.97160930	5.74716297	2.03664227	10.48767614
2028	20.27000000	-7.23917440	-0.61946450	7.66771019	8.93949989	-1.32293985	3.05483177	4.95391068	8.37585494	0.87526592	6.81973453	-0.50582987	2.68747975	9.58719135	-2.55259377	-0.04531976	9.54242285	1.51469213	-1.50987609	10.51934943	0.46868639	10.27138036	5.25814182	1.95750402	10.76466627
2029	20.28000000	-7.28375520	-0.53964958	7.63787260	8.91676294	-1.60365977	2.98050188	5.71889515	8.38097022	0.64076003	6.69960687	-0.25047136	2.79709806	9.58541240	-2.36456764	-0.10028534	9.69332535	1.52074100	-1.63457079	11.53849108	1.01589586	10.73097511	5.51747957	2.25046458	10.58575646
2030	20.29000000	-7.36415216	-0.51764794	7.69473619	8.87870947	-1.80044944	2.82525629	6.44141750	8.34279213	0.42209013	6.63838167	-0.10886176	3.00279413	9.47698649	-2.17403287	-0.22492261	9.77117486	1.46880147	-1.79858364	13.52127863	0.94060747	11.44214932	5.73050320	2.16539681	10.51902677
2031	20.30000000	-7.44542996	-0.43906072	7.83071770	8.85467810	-1.82082564	2.75626356	6.96384617	8.12200801	0.20649223	6.69036397	0.02658018	3.18016864	9.60216162	-2.13769418	-0.43136929	9.80428883	1.33622634	-1.90129911	15.62486978	0.10830504	11.80813362	5.67984141	1.87219226	10.51403554
2032	20.31000000	-7.48865769	-0.46044640	7.89063746	8.85761418	-1.72152961	2.66792452	7.50340365	7.46328695	0.36788245	6.78624147	0.09445522	3.27541918	9.82112697	-2.28109510	-0.31863306	9.75809512	1.18716014	-1.87148170	17.39796048	-0.61581562	11.51567461	5.51015353	2.03041764	10.64416795
2033	20.32000000	-7.56753689	-0.53754840	7.86376590	8.87395555	-1.63628064	2.67159223	8.18203325	6.21095372	0.96052996	6.74997705	-0.24653666	3.31626243	9.92139578	-2.31661525	-0.26688738	9.72465018	1.11476482	-1.82438530	18.18571707	-0.78795756	10.72060372	5.41090612	2.12707348	10.84774008
2034	20.33000000	-7.71288880	-0.58495754	7.90790790	8.78378474	-1.48046748	2.65601896	8.91234826	4.38389025	1.37760921	6.79793421	-0.89155377	3.34671136	9.98234626	-2.19907258	-0.30505846	9.67750056	1.01411784	-1.75123675	18.51044594	-0.65585858	9.68599226	5.84147925	1.87236608	10.66073315
2035	20.34000000	-7.79470902	-0.66655816	7.87331180	8.62731618	-1.39728166	2.56871412	9.66706017	2.67942078	1.75849767	6.92009324	-1.71843788	3.34627304	10.20852739	-2.33851138	-0.08420551	9.78024634	1.13298743	-1.79291077	18.85356477	-0.56817453	8.60382571	5.69919577	1.65942289	10.67671594
2036	20.35000000	-7.96504667	-0.72641850	7.87872133	8.52858048	-1.41713297	2.65584974	10.38609189	1.77843715	2.03879809	7.26160180	-2.62014142	3.24430124	10.34547449	-2.75963393	-0.12451344	9.98282403	1.27864853	-1.90609101	19.26446527	-0.58634247	7.76162319	5.80444754	1.67918342	10.79556442
2037	20.36000000	-8.19169429	-0.85213168	8.06294931	8.49440101	-1.49917540	2.73003933	11.03870665	1.75862454	2.05170374	7.85480344	-3.57741127	2.93510266	10.35987240	-2.76201877	-0.13646622	10.05421732	1.48585453	-1.97467801	19.14831244	-0.19822013	6.64531363	5.51634655	1.51640334	11.09691768
2038	20.37000000	-8.22157361	-0.84520684	7.90733565	8.56770271	-1.52420184	2.77525775	11.40004587	1.81368054	2.00689076	8.65880984	-4.44231366	2.63832044	10.49267446	-2.38513329	0.02188074	10.27978728	1.83653181	-2.07219000	18.58465869	0.31663086	5.01162199	5.80090852	1.67332771	10.87910803
2039	20.38000000	-8.28107731	-0.93433349	7.97359203	8.60655954	-1.44875451	2.78706236	11.44313478	1.25595457	2.36017754	9.30324839	-5.05092959	2.48943633	10.58058910	-1.79756427	0.10462460	10.36132376	1.89165055	-1.96174061	18.08100091	0.40925642	2.89343980	5.84316083	1.75274093	10.79759343
2040	20.39000000	-8.33974492	-1.02258410	7.95100259	8.73552315	-1.32425725	2.85709305	10.88259045	0.00064164	2.94467701	9.42695933	-5.23308175	2.54342209	10.81803489	-1.54433004	0.20882342	10.42920467	2.17865475	-2.05072898	18.76744208	0.48777689	0.61140844	5.91788255	1.43915763	10.76827335
2041	20.40000000	-8.30175745	-0.96418320	7.96019111	8.92742301	-1.27386266	2.92538435	9.86854389	-1.28899877	3.46615110	9.21142588	-5.42967388	2.75369572	10.96973401	-1.49300150	0.28389600	10.55788642	1.86589525	-1.95845183	19.91999943	1.13593957	-1.32775692	5.71728263	1.42316481	11.06737406
2042	20.41000000	-8.30336459	-0.95742633	8.14524125	9.11376352	-1.24214383	3.09248693	8.74613235	-2.28554864	3.70341397	9.08995251	-5.86454418	2.87740486	11.08076105	-1.83132105	0.59549747	10.39746234	1.82536452	-2.07418999	20.28164449	4.06079076	-3.38268892	5.43767986	0.99443776	11.13701758
2043	20.42000000	-8.31286505	-0.89250568	8.21792939	9.28183164	-1.23672512	3.09041073	8.23686910	-3.78710339	3.07917862	9.27259996	-6.58181309	3.04093304	10.84182084	-2.27521934	0.72422361	10.24666050	1.96354375	-2.23218717	19.61478144	6.96439571	-5.83757403	6.10170880	0.67363195	10.78188647
2044	20.43000000	-8.35855852	-0.85455150	8.28494770	9.57575380	-1.24362479	3.12759188	8.35153511	-5.04542497	2.51590766	9.51612988	-7.46198766	3.17436490	10.61733486	-2.20557698	0.75093239	10.11509543	2.05649649	-2.34928781	17.65364399	7.04306343	-8.28310688	6.34638643	0.68257836	10.71363200
2045	20.44000000	-8.53098842	-0.86056265	8.34288958	9.81754007	-1.15528095	2.93397479	8.41590267	-4.33859197	2.50544757	9.71205114	-8.00576504	3.30359357	10.55860089	-1.81089238	1.07930341	9.90807502	1.98073426	-2.37203843	16.44586828	5.04904611	-9.42076782	6.26117883	1.08568953	10.62427660
2046	20.45000000	-8.56470040	-0.88411173	8.30689080	9.99936063	-1.13416474	2.55955259	8.41025306	-2.69608821	2.31170379	9.56525450	-8.07617817	3.36919730	10.29709242	-1.28701223	1.43883776	9.62892138	1.89484015	-2.42896336	16.15964964	2.82405528	-8.09730239	6.01974481	1.68824169	10.57808319
2047	20.46000000	-8.49435689	-1.04390628	8.28687301	10.12854055	-1.11751724	2.33133259	8.33741017	-1.22719875	2.13533446	9.13858136	-7.58783861	3.37357373	9.87349298	-0.40688505	1.27202029	9.67613896	1.80788251	-2.41499653	14.30832126	-3.53443890	-7.01397124	6.45078833	2.20589893	10.19931515
2048	20.47000000	-8.36511917	-1.23936349	8.30850737	10.12780806	-1.00802993	1.95890343	8.41148049	-0.06405236	1.74193172	8.44767192	-6.70420013	3.35025963	9.86143358	0.52070151	1.24435513	9.53339993	1.77184846	-2.42533601	12.29693800	1.20070131	-4.85354727	6.46906378	2.22651477	10.15570855
2049	20.48000000	-8.35356226	-1.40357210	8.40864259	9.99631629	-1.02736888	1.96731482	8.75352248	-0.13432157	1.20850621	7.75502823	-5.56202119	3.54345685	9.92094390	0.64604649	0.86536816	9.37523163	1.66397734	-2.26680018	3.31562447	3.28935420	8.18424559	6.32107797	2.90191064	10.02238628
2050	20.49000000	-8.45953491	-1.55165316	8.58223262	9.95328595	-1.14173394	2.23700786	9.47035309	0.67412290	1.40522040	7.65925873	-4.30812325	3.57659012	10.05361610	0.17730292	0.90462855	9.33734489	1.68453750	-2.01277378	4.81798016	-7.23684845	14.51269798	6.37046277	2.91191710	10.26357085
